# xmcd
#
# Track frame offsets: 
#        300
#        10606
#        22365
#        32614
#        43834
#        46424
#        58831
#        70345
#        82468
#        94609
#        105158
#        117894
#
# Disc length: 1768 seconds
#
# Revision: 0
# Processed by: cddbd v1.5.2PL0 Copyright (c) Steve Scherf et al.
# Submitted via: ExactAudioCopy v1.0b1
#
DISCID=a006e40c
DTITLE=Bobby "Blue" Bland - Best of Bobby Bland
DYEAR=1974
DGENRE=Soul Blues
TTITLE0=Poverty
TTITLE1=I Smell Trouble
TTITLE2=Someday
TTITLE3=I'll Take Care of You
TTITLE4=I Pity the Fool
TTITLE5=Cry Cry Cry
TTITLE6=Turn on Your Love Light
TTITLE7=Call on Me
TTITLE8=Ain't Nothing You Can Do
TTITLE9=If You Could Read My Mind
TTITLE10=Farther Up the Road
TTITLE11=Stormy Monday
EXTD=
EXTT0=
EXTT1=
EXTT2=
EXTT3=
EXTT4=
EXTT5=
EXTT6=
EXTT7=
EXTT8=
EXTT9=
EXTT10=
EXTT11=
PLAYORDER=
